<?xml version="1.0" standalone="no"?>
<!DOCTYPE svg PUBLIC "-//W3C//DTD SVG 1.1//EN" "http://www.w3.org/Graphics/SVG/1.1/DTD/svg11.dtd">
<svg xmlns="http://www.w3.org/2000/svg" xmlns:xlink="http://www.w3.org/1999/xlink" version="1.1" id="Capa_1" x="0px" y="0px" viewBox="0 0 488.34 97.05" style="enable-background:new 0 0 488.34 97.05;" xml:space="preserve" width="488.3399963378906" height="97.05000305175781">
<style type="text/css">
	.st0{fill:#043A26;}
	.st1{fill-rule:evenodd;clip-rule:evenodd;fill:#FFD400;}
</style>
<g>
	<g>
		<path class="st0" d="M113.97,80.22V18.54l0.23-0.27h38.89c0.93,0,1.57,0.09,1.9,0.27c2.8,0.99,4.21,2.62,4.21,4.88v35.04    l-0.14,0.95c-0.93,2.8-2.88,4.21-5.83,4.21h-27.77v16.6l-0.23,0.23h-11.03L113.97,80.22z M147.97,52.27V29.66h-22.61v22.61H147.97    z"/>
		<path class="st0" d="M167.39,18.27h40.2c1.54,0,2.97,1.04,4.3,3.12c0.33,0.69,0.5,1.33,0.5,1.9v39.97l-0.23,0.23h-38.17    c-4.55,0-6.83-2.28-6.83-6.83v-14.7c0-3.16,1.11-5.28,3.35-6.33c0.87-0.33,1.79-0.5,2.76-0.5h27.86v-5.61h-33.73l-0.23-0.27V18.49    L167.39,18.27z M178.51,46.49v5.65h22.61v-5.65H178.51z"/>
		<path class="st0" d="M255.35,18.27l0.23,0.23V29.3l-0.23,0.23h-22.29v33.73l-0.27,0.23h-10.9l-0.23-0.23V24.37    c0-3.17,1.52-5.2,4.57-6.11H255.35z"/>
		<path class="st0" d="M309.86,18.27l0.22,0.23V29.3l-0.22,0.23h-33.6v5.61h28.22c2.62,0,4.45,1.4,5.47,4.21l0.13,0.95v18.04    c0,2.26-1.4,3.9-4.21,4.93c-0.33,0.15-0.96,0.23-1.9,0.23H265.1l-0.23-0.23v-10.9l0.23-0.27h33.74v-5.61h-28.22    c-2.65,0-4.49-1.4-5.52-4.21l-0.23-1.99V24.37c0-3.17,1.52-5.2,4.57-6.11H309.86z"/>
		<path class="st0" d="M360.45,18.27c2.29,0,3.96,1.48,5.02,4.43v23.56l-0.23,0.27H331.6v5.61h33.64l0.23,0.18v10.94l-0.23,0.23    h-38.75c-3.14,0-5.14-1.43-6.01-4.29c-0.15-0.36-0.23-1.01-0.23-1.95V24.37c0-3.17,1.52-5.2,4.57-6.11H360.45z M331.64,29.44v5.65    h22.66v-5.65H331.64z"/>
		<path class="st0" d="M419.7,18.27l0.23,0.23V29.3l-0.23,0.23h-33.64v22.61h33.64l0.23,0.18v10.94l-0.23,0.23h-38.75    c-3.14,0-5.14-1.43-6.01-4.29c-0.15-0.36-0.23-1.01-0.23-1.95V24.37c0-3.17,1.52-5.2,4.57-6.11H419.7z"/>
		<path class="st0" d="M473.85,18.27l0.23,0.23V29.3l-0.23,0.23h-33.6v5.61h28.22c2.62,0,4.45,1.4,5.47,4.21l0.14,0.95v18.04    c0,2.26-1.4,3.9-4.21,4.93c-0.33,0.15-0.97,0.23-1.9,0.23h-38.89l-0.23-0.23v-10.9l0.23-0.27h33.73v-5.61H434.6    c-2.65,0-4.49-1.4-5.52-4.21l-0.23-1.99V24.37c0-3.17,1.52-5.2,4.57-6.11H473.85z"/>
	</g>
	<g>
		<path class="st0" d="M96.15,83.16c0,3.53-2.86,6.39-6.39,6.39H21.41c-3.53,0-6.39-2.86-6.39-6.39V14.81    c0-3.53,2.86-6.39,6.39-6.39h68.35c3.53,0,6.39,2.86,6.39,6.39V83.16z"/>
		<path class="st1" d="M63.2,36.84l1.48,2.89l-3.52-0.42l-1.48-2.91L63.2,36.84z M45.26,41.33l3.2-0.57l1.45-3.24L46.7,38.1    L45.26,41.33z M55.76,34.59c-0.11-0.21-0.19-0.39-0.25-0.57l-3.94,8.9l-9.19,1.62c-0.26,0.05-0.49,0.07-0.7,0.08l7.16,6.19    l-1.14,9.26c-0.03,0.29-0.08,0.54-0.14,0.76l8.08-4.6L64,60.41c0.23,0.1,0.42,0.22,0.59,0.32l-2.06-9.52l6.47-6.72    c0.18-0.19,0.34-0.34,0.5-0.46l-9.47-1.14L55.76,34.59z M62.59,33.02c1.66,0.2,2.27,1.34,2.78,2.31c0.81,1.58,1.6,3.16,2.41,4.74    l6.52,0.78c-2.83-6.58-9.03-11.34-16.43-12.15l-1.58,3.56L62.59,33.02z M71.38,44.25l1.32,6.17c0.35,1.64-0.53,2.59-1.28,3.39    c-1.24,1.28-2.47,2.55-3.71,3.83l1.39,6.39c4.19-3.71,6.84-9.13,6.84-15.17c0-1.4-0.14-2.78-0.41-4.11L71.38,44.25z M64.97,62.59    l-5.54,3.13c-1.45,0.83-2.62,0.27-3.6-0.2c-1.6-0.8-3.18-1.58-4.76-2.38l-5.69,3.23c3.01,1.79,6.52,2.81,10.27,2.81    c3.71,0,7.17-1,10.16-2.74L64.97,62.59L64.97,62.59z M59.77,61.28l-2.92-1.45l-3.09,1.75l2.91,1.45L59.77,61.28z M40.29,43.37    l2.59-5.82c0.68-1.53,1.95-1.77,3.02-1.98c1.75-0.3,3.5-0.61,5.25-0.92l2.66-6c-7.5,0.66-13.8,5.4-16.72,11.99l3.19,2.77    C40.29,43.41,40.29,43.39,40.29,43.37z M68.57,48.78l-2.27,2.35l0.75,3.47l2.25-2.35L68.57,48.78z M45.96,61.74l-4.8-4.17    c-1.27-1.09-1.14-2.37-1.01-3.48c0.22-1.75,0.44-3.51,0.66-5.28l-4.98-4.3l0.01-0.1c-0.32,1.44-0.5,2.92-0.5,4.46    c0,5.99,2.62,11.36,6.73,15.08L45.96,61.74L45.96,61.74z M45.86,53.17l-2.68-2.33l-0.39,3.24l2.67,2.33L45.86,53.17z M86.01,48.99    c0,16.8-13.61,30.42-30.42,30.42c-16.8,0-30.43-13.62-30.43-30.41c0-16.82,13.62-30.43,30.43-30.43    C72.4,18.56,86.01,32.18,86.01,48.99z M80.94,48.95c0-13.99-11.32-25.32-25.31-25.32c-13.98,0-25.31,11.33-25.31,25.33    c0,13.96,11.33,25.3,25.31,25.3C69.62,74.26,80.94,62.92,80.94,48.95z"/>
	</g>
</g>
</svg>