<?xml version="1.0" standalone="no"?>
<!DOCTYPE svg PUBLIC "-//W3C//DTD SVG 1.1//EN" "http://www.w3.org/Graphics/SVG/1.1/DTD/svg11.dtd">
<svg xmlns="http://www.w3.org/2000/svg" viewBox="0 0 57.49 50.49" width="57.4900016784668" height="50.4900016784668"><defs><style>.cls-1{fill:#231f20;}.cls-2{fill:#232b63;}.cls-3{fill:#fff;}</style></defs><title>logo</title><g id="Layer_2" data-name="Layer 2"><g id="Layer_1-2" data-name="Layer 1"><path class="cls-1" d="M53.12,33.69a2.19,2.19,0,1,1,2.19,2.18A2.09,2.09,0,0,1,53.12,33.69Zm.55,0a1.55,1.55,0,0,0,1.62,1.65A1.59,1.59,0,0,0,57,33.67a1.64,1.64,0,0,0-3.28,0Zm1.14,1.19H54.3V32.53h1.32c.49,0,.78.19.78.72s-.22.61-.64.63l.57,1h-.59l-.52-.94h-.41Zm.69-1.35c.26,0,.39,0,.39-.34s-.28-.26-.5-.26h-.58v.6Z"/><path class="cls-1" d="M.61,50.49a.58.58,0,0,1-.43-.18A.58.58,0,0,1,0,49.89V35.27a.61.61,0,0,1,.18-.43.58.58,0,0,1,.43-.18H8.76a6,6,0,0,1,1.91.28,5,5,0,0,1,1.55.79A4.14,4.14,0,0,1,13.3,37a3.4,3.4,0,0,1,.37,1.6,3.83,3.83,0,0,1-.49,2,3.5,3.5,0,0,1-1.51,1.37,4.13,4.13,0,0,1,1.6,1,4.47,4.47,0,0,1,1,3,4.07,4.07,0,0,1-1.56,3.31,5.88,5.88,0,0,1-3.84,1.19ZM5.39,38.28V40.8H6.62a1.93,1.93,0,0,0,1.24-.38,1.1,1.1,0,0,0,.48-.85,1.17,1.17,0,0,0-.45-.91,1.87,1.87,0,0,0-1.25-.38Zm0,5.59v3H6.78a2.4,2.4,0,0,0,1.41-.4,1.27,1.27,0,0,0,.55-1.08,1.37,1.37,0,0,0-.52-1.12,2.2,2.2,0,0,0-1.38-.41Z"/><path class="cls-1" d="M19.47,50.49a.58.58,0,0,1-.43-.18.58.58,0,0,1-.18-.42V38.64H14.68a.6.6,0,0,1-.44-.18.64.64,0,0,1-.17-.45V35.27a.65.65,0,0,1,.17-.43.6.6,0,0,1,.44-.18h14a.61.61,0,0,1,.63.61V38a.62.62,0,0,1-.63.63H24.49V49.89a.61.61,0,0,1-.17.42.57.57,0,0,1-.43.18Z"/><path class="cls-1" d="M51.67,34.66a.6.6,0,0,1,.44.18.61.61,0,0,1,.18.43V49.89a.58.58,0,0,1-.18.42.6.6,0,0,1-.44.18h-4a.61.61,0,0,1-.45-.18.58.58,0,0,1-.18-.42V42l-4.38,8.16a.91.91,0,0,1-.24.24.57.57,0,0,1-.31.1H40.18a.57.57,0,0,1-.31-.1.69.69,0,0,1-.24-.24L35.27,42v7.88a.58.58,0,0,1-.18.42.61.61,0,0,1-.45.18h-4a.6.6,0,0,1-.44-.18.58.58,0,0,1-.18-.42V35.27a.61.61,0,0,1,.18-.43.6.6,0,0,1,.44-.18h4.73a.64.64,0,0,1,.29.09.49.49,0,0,1,.23.22l5.29,8.58L46.37,35a.78.78,0,0,1,.25-.22.64.64,0,0,1,.3-.09Z"/><path class="cls-2" d="M11.62,11.63a15.22,15.22,0,0,0-.37,3.26A14.9,14.9,0,0,0,22,29.18c1.36-4.76,1.92-6.43,1.92-6.43S12.72,22.34,11.62,11.63Z"/><path class="cls-2" d="M29.47.39A14.57,14.57,0,0,0,26.15,0,14.89,14.89,0,0,0,12.07,10.06L18,11.73S19.21,1.89,29.47.39Z"/><path class="cls-2" d="M30.16.56c-.42,1.61-1.33,5.68-1.33,5.68-.19,0,11.93.43,11.93,11.2L40.39,19l-5.23-1.64S34.3,28.6,23,29.45a14.64,14.64,0,0,0,3.13.33,14.88,14.88,0,0,0,4-29.22Z"/><path class="cls-3" d="M21.88,29.5c.39,0,.77,0,1.14-.05q-.54-.12-1.05-.27Z"/><path class="cls-3" d="M11.53,9.91a15.82,15.82,0,0,0,.09,1.72,14.08,14.08,0,0,1,.45-1.57Z"/><path class="cls-3" d="M30.24.29c-.26,0-.52.06-.77.1l.69.17C30.19.46,30.22.37,30.24.29Z"/></g></g></svg>